<mxfile host="app.diagrams.net" modified="2022-11-21T08:36:38.595Z" agent="5.0 (Macintosh; Intel Mac OS X 10_15_7) AppleWebKit/537.36 (KHTML, like Gecko) Chrome/106.0.0.0 Safari/537.36" etag="u3YL0_CeHBbO3v_s1kvQ" version="20.5.3" type="github">
  <diagram id="dg6bL0Iz7yEUwJKxHTDx" name="第 1 页">
    <mxGraphModel dx="2672" dy="609" grid="1" gridSize="10" guides="1" tooltips="1" connect="1" arrows="1" fold="1" page="1" pageScale="1" pageWidth="827" pageHeight="1169" math="0" shadow="0">
      <root>
        <mxCell id="0" />
        <mxCell id="1" parent="0" />
        <mxCell id="f_LNBWvZgOzlbnHwpdef-5" style="edgeStyle=orthogonalEdgeStyle;rounded=0;orthogonalLoop=1;jettySize=auto;html=1;exitX=0.5;exitY=1;exitDx=0;exitDy=0;" edge="1" parent="1" source="f_LNBWvZgOzlbnHwpdef-2" target="f_LNBWvZgOzlbnHwpdef-3">
          <mxGeometry relative="1" as="geometry" />
        </mxCell>
        <mxCell id="f_LNBWvZgOzlbnHwpdef-2" value="10 黑" style="rounded=1;whiteSpace=wrap;html=1;" vertex="1" parent="1">
          <mxGeometry x="190" y="100" width="120" height="60" as="geometry" />
        </mxCell>
        <mxCell id="f_LNBWvZgOzlbnHwpdef-6" style="edgeStyle=orthogonalEdgeStyle;rounded=0;orthogonalLoop=1;jettySize=auto;html=1;exitX=0.5;exitY=1;exitDx=0;exitDy=0;" edge="1" parent="1" source="f_LNBWvZgOzlbnHwpdef-3" target="f_LNBWvZgOzlbnHwpdef-4">
          <mxGeometry relative="1" as="geometry" />
        </mxCell>
        <mxCell id="f_LNBWvZgOzlbnHwpdef-3" value="3 红" style="rounded=1;whiteSpace=wrap;html=1;" vertex="1" parent="1">
          <mxGeometry x="80" y="220" width="120" height="60" as="geometry" />
        </mxCell>
        <mxCell id="f_LNBWvZgOzlbnHwpdef-4" value="6 红" style="rounded=1;whiteSpace=wrap;html=1;" vertex="1" parent="1">
          <mxGeometry x="170" y="320" width="120" height="60" as="geometry" />
        </mxCell>
        <mxCell id="f_LNBWvZgOzlbnHwpdef-10" style="edgeStyle=orthogonalEdgeStyle;rounded=0;orthogonalLoop=1;jettySize=auto;html=1;exitX=0.5;exitY=1;exitDx=0;exitDy=0;entryX=0.567;entryY=-0.05;entryDx=0;entryDy=0;entryPerimeter=0;" edge="1" parent="1" source="f_LNBWvZgOzlbnHwpdef-7" target="f_LNBWvZgOzlbnHwpdef-8">
          <mxGeometry relative="1" as="geometry" />
        </mxCell>
        <mxCell id="f_LNBWvZgOzlbnHwpdef-7" value="10 黑" style="rounded=1;whiteSpace=wrap;html=1;" vertex="1" parent="1">
          <mxGeometry x="560" y="100" width="120" height="60" as="geometry" />
        </mxCell>
        <mxCell id="f_LNBWvZgOzlbnHwpdef-11" style="edgeStyle=orthogonalEdgeStyle;rounded=0;orthogonalLoop=1;jettySize=auto;html=1;exitX=0.5;exitY=1;exitDx=0;exitDy=0;" edge="1" parent="1" source="f_LNBWvZgOzlbnHwpdef-8" target="f_LNBWvZgOzlbnHwpdef-9">
          <mxGeometry relative="1" as="geometry" />
        </mxCell>
        <mxCell id="f_LNBWvZgOzlbnHwpdef-8" value="6 红" style="rounded=1;whiteSpace=wrap;html=1;" vertex="1" parent="1">
          <mxGeometry x="470" y="220" width="120" height="60" as="geometry" />
        </mxCell>
        <mxCell id="f_LNBWvZgOzlbnHwpdef-9" value="3 红" style="rounded=1;whiteSpace=wrap;html=1;" vertex="1" parent="1">
          <mxGeometry x="390" y="320" width="120" height="60" as="geometry" />
        </mxCell>
        <mxCell id="f_LNBWvZgOzlbnHwpdef-15" style="edgeStyle=orthogonalEdgeStyle;rounded=0;orthogonalLoop=1;jettySize=auto;html=1;exitX=0.5;exitY=1;exitDx=0;exitDy=0;" edge="1" parent="1" source="f_LNBWvZgOzlbnHwpdef-12" target="f_LNBWvZgOzlbnHwpdef-13">
          <mxGeometry relative="1" as="geometry" />
        </mxCell>
        <mxCell id="f_LNBWvZgOzlbnHwpdef-16" style="edgeStyle=orthogonalEdgeStyle;rounded=0;orthogonalLoop=1;jettySize=auto;html=1;exitX=0.5;exitY=1;exitDx=0;exitDy=0;" edge="1" parent="1" source="f_LNBWvZgOzlbnHwpdef-12" target="f_LNBWvZgOzlbnHwpdef-14">
          <mxGeometry relative="1" as="geometry" />
        </mxCell>
        <mxCell id="f_LNBWvZgOzlbnHwpdef-12" value="6 黑" style="rounded=1;whiteSpace=wrap;html=1;" vertex="1" parent="1">
          <mxGeometry x="810" y="90" width="120" height="60" as="geometry" />
        </mxCell>
        <mxCell id="f_LNBWvZgOzlbnHwpdef-13" value="3 红" style="rounded=1;whiteSpace=wrap;html=1;" vertex="1" parent="1">
          <mxGeometry x="710" y="220" width="120" height="60" as="geometry" />
        </mxCell>
        <mxCell id="f_LNBWvZgOzlbnHwpdef-14" value="10 红" style="rounded=1;whiteSpace=wrap;html=1;" vertex="1" parent="1">
          <mxGeometry x="920" y="220" width="120" height="60" as="geometry" />
        </mxCell>
        <mxCell id="f_LNBWvZgOzlbnHwpdef-19" style="edgeStyle=orthogonalEdgeStyle;rounded=0;orthogonalLoop=1;jettySize=auto;html=1;exitX=0.5;exitY=1;exitDx=0;exitDy=0;entryX=0.5;entryY=0;entryDx=0;entryDy=0;" edge="1" parent="1" source="f_LNBWvZgOzlbnHwpdef-17" target="f_LNBWvZgOzlbnHwpdef-18">
          <mxGeometry relative="1" as="geometry" />
        </mxCell>
        <mxCell id="f_LNBWvZgOzlbnHwpdef-23" style="edgeStyle=orthogonalEdgeStyle;rounded=0;orthogonalLoop=1;jettySize=auto;html=1;exitX=0.5;exitY=1;exitDx=0;exitDy=0;" edge="1" parent="1" source="f_LNBWvZgOzlbnHwpdef-17" target="f_LNBWvZgOzlbnHwpdef-22">
          <mxGeometry relative="1" as="geometry" />
        </mxCell>
        <mxCell id="f_LNBWvZgOzlbnHwpdef-17" value="6 黑" style="rounded=1;whiteSpace=wrap;html=1;" vertex="1" parent="1">
          <mxGeometry x="180" y="450" width="120" height="60" as="geometry" />
        </mxCell>
        <mxCell id="f_LNBWvZgOzlbnHwpdef-21" style="edgeStyle=orthogonalEdgeStyle;rounded=0;orthogonalLoop=1;jettySize=auto;html=1;exitX=0.5;exitY=1;exitDx=0;exitDy=0;" edge="1" parent="1" source="f_LNBWvZgOzlbnHwpdef-18" target="f_LNBWvZgOzlbnHwpdef-20">
          <mxGeometry relative="1" as="geometry" />
        </mxCell>
        <mxCell id="f_LNBWvZgOzlbnHwpdef-18" value="3 黑" style="rounded=1;whiteSpace=wrap;html=1;" vertex="1" parent="1">
          <mxGeometry x="80" y="555" width="120" height="60" as="geometry" />
        </mxCell>
        <mxCell id="f_LNBWvZgOzlbnHwpdef-20" value="1 红" style="rounded=1;whiteSpace=wrap;html=1;" vertex="1" parent="1">
          <mxGeometry x="-10" y="660" width="120" height="60" as="geometry" />
        </mxCell>
        <mxCell id="f_LNBWvZgOzlbnHwpdef-22" value="10 黑" style="rounded=1;whiteSpace=wrap;html=1;" vertex="1" parent="1">
          <mxGeometry x="280" y="555" width="120" height="60" as="geometry" />
        </mxCell>
        <mxCell id="f_LNBWvZgOzlbnHwpdef-27" style="edgeStyle=orthogonalEdgeStyle;rounded=0;orthogonalLoop=1;jettySize=auto;html=1;exitX=0.5;exitY=1;exitDx=0;exitDy=0;" edge="1" parent="1" source="f_LNBWvZgOzlbnHwpdef-24" target="f_LNBWvZgOzlbnHwpdef-25">
          <mxGeometry relative="1" as="geometry" />
        </mxCell>
        <mxCell id="f_LNBWvZgOzlbnHwpdef-24" value="10 黑" style="rounded=1;whiteSpace=wrap;html=1;" vertex="1" parent="1">
          <mxGeometry x="-190" y="100" width="120" height="60" as="geometry" />
        </mxCell>
        <mxCell id="f_LNBWvZgOzlbnHwpdef-25" value="3 红" style="rounded=1;whiteSpace=wrap;html=1;" vertex="1" parent="1">
          <mxGeometry x="-290" y="220" width="120" height="60" as="geometry" />
        </mxCell>
        <mxCell id="f_LNBWvZgOzlbnHwpdef-28" style="edgeStyle=orthogonalEdgeStyle;rounded=0;orthogonalLoop=1;jettySize=auto;html=1;exitX=0.5;exitY=1;exitDx=0;exitDy=0;" edge="1" parent="1" source="f_LNBWvZgOzlbnHwpdef-29" target="f_LNBWvZgOzlbnHwpdef-30">
          <mxGeometry relative="1" as="geometry" />
        </mxCell>
        <mxCell id="f_LNBWvZgOzlbnHwpdef-32" style="edgeStyle=orthogonalEdgeStyle;rounded=0;orthogonalLoop=1;jettySize=auto;html=1;exitX=0.5;exitY=1;exitDx=0;exitDy=0;" edge="1" parent="1" source="f_LNBWvZgOzlbnHwpdef-29" target="f_LNBWvZgOzlbnHwpdef-31">
          <mxGeometry relative="1" as="geometry" />
        </mxCell>
        <mxCell id="f_LNBWvZgOzlbnHwpdef-29" value="6 黑" style="rounded=1;whiteSpace=wrap;html=1;" vertex="1" parent="1">
          <mxGeometry x="-300" y="435" width="120" height="60" as="geometry" />
        </mxCell>
        <mxCell id="f_LNBWvZgOzlbnHwpdef-30" value="3 红" style="rounded=1;whiteSpace=wrap;html=1;" vertex="1" parent="1">
          <mxGeometry x="-400" y="555" width="120" height="60" as="geometry" />
        </mxCell>
        <mxCell id="f_LNBWvZgOzlbnHwpdef-31" value="10 红" style="rounded=1;whiteSpace=wrap;html=1;" vertex="1" parent="1">
          <mxGeometry x="-190" y="555" width="120" height="60" as="geometry" />
        </mxCell>
        <mxCell id="f_LNBWvZgOzlbnHwpdef-33" style="edgeStyle=orthogonalEdgeStyle;rounded=0;orthogonalLoop=1;jettySize=auto;html=1;exitX=0.5;exitY=1;exitDx=0;exitDy=0;entryX=0.5;entryY=0;entryDx=0;entryDy=0;" edge="1" parent="1" source="f_LNBWvZgOzlbnHwpdef-35" target="f_LNBWvZgOzlbnHwpdef-37">
          <mxGeometry relative="1" as="geometry" />
        </mxCell>
        <mxCell id="f_LNBWvZgOzlbnHwpdef-34" style="edgeStyle=orthogonalEdgeStyle;rounded=0;orthogonalLoop=1;jettySize=auto;html=1;exitX=0.5;exitY=1;exitDx=0;exitDy=0;" edge="1" parent="1" source="f_LNBWvZgOzlbnHwpdef-35" target="f_LNBWvZgOzlbnHwpdef-39">
          <mxGeometry relative="1" as="geometry" />
        </mxCell>
        <mxCell id="f_LNBWvZgOzlbnHwpdef-35" value="6 黑" style="rounded=1;whiteSpace=wrap;html=1;" vertex="1" parent="1">
          <mxGeometry x="-270" y="760" width="120" height="60" as="geometry" />
        </mxCell>
        <mxCell id="f_LNBWvZgOzlbnHwpdef-36" style="edgeStyle=orthogonalEdgeStyle;rounded=0;orthogonalLoop=1;jettySize=auto;html=1;exitX=0.5;exitY=1;exitDx=0;exitDy=0;" edge="1" parent="1" source="f_LNBWvZgOzlbnHwpdef-37" target="f_LNBWvZgOzlbnHwpdef-38">
          <mxGeometry relative="1" as="geometry" />
        </mxCell>
        <mxCell id="f_LNBWvZgOzlbnHwpdef-37" value="3 黑" style="rounded=1;whiteSpace=wrap;html=1;" vertex="1" parent="1">
          <mxGeometry x="-370" y="865" width="120" height="60" as="geometry" />
        </mxCell>
        <mxCell id="f_LNBWvZgOzlbnHwpdef-38" value="1 红" style="rounded=1;whiteSpace=wrap;html=1;" vertex="1" parent="1">
          <mxGeometry x="-460" y="970" width="120" height="60" as="geometry" />
        </mxCell>
        <mxCell id="f_LNBWvZgOzlbnHwpdef-39" value="10 黑" style="rounded=1;whiteSpace=wrap;html=1;" vertex="1" parent="1">
          <mxGeometry x="-170" y="865" width="120" height="60" as="geometry" />
        </mxCell>
        <mxCell id="f_LNBWvZgOzlbnHwpdef-40" style="edgeStyle=orthogonalEdgeStyle;rounded=0;orthogonalLoop=1;jettySize=auto;html=1;exitX=0.5;exitY=1;exitDx=0;exitDy=0;entryX=0.5;entryY=0;entryDx=0;entryDy=0;" edge="1" parent="1" source="f_LNBWvZgOzlbnHwpdef-42" target="f_LNBWvZgOzlbnHwpdef-44">
          <mxGeometry relative="1" as="geometry" />
        </mxCell>
        <mxCell id="f_LNBWvZgOzlbnHwpdef-41" style="edgeStyle=orthogonalEdgeStyle;rounded=0;orthogonalLoop=1;jettySize=auto;html=1;exitX=0.5;exitY=1;exitDx=0;exitDy=0;" edge="1" parent="1" source="f_LNBWvZgOzlbnHwpdef-42" target="f_LNBWvZgOzlbnHwpdef-46">
          <mxGeometry relative="1" as="geometry" />
        </mxCell>
        <mxCell id="f_LNBWvZgOzlbnHwpdef-42" value="6 黑" style="rounded=1;whiteSpace=wrap;html=1;" vertex="1" parent="1">
          <mxGeometry x="170" y="760" width="120" height="60" as="geometry" />
        </mxCell>
        <mxCell id="f_LNBWvZgOzlbnHwpdef-43" style="edgeStyle=orthogonalEdgeStyle;rounded=0;orthogonalLoop=1;jettySize=auto;html=1;exitX=0.5;exitY=1;exitDx=0;exitDy=0;" edge="1" parent="1" source="f_LNBWvZgOzlbnHwpdef-44" target="f_LNBWvZgOzlbnHwpdef-45">
          <mxGeometry relative="1" as="geometry" />
        </mxCell>
        <mxCell id="f_LNBWvZgOzlbnHwpdef-49" style="edgeStyle=orthogonalEdgeStyle;rounded=0;orthogonalLoop=1;jettySize=auto;html=1;exitX=0.5;exitY=1;exitDx=0;exitDy=0;entryX=0.5;entryY=0;entryDx=0;entryDy=0;" edge="1" parent="1" source="f_LNBWvZgOzlbnHwpdef-44" target="f_LNBWvZgOzlbnHwpdef-48">
          <mxGeometry relative="1" as="geometry" />
        </mxCell>
        <mxCell id="f_LNBWvZgOzlbnHwpdef-44" value="3 黑" style="rounded=1;whiteSpace=wrap;html=1;" vertex="1" parent="1">
          <mxGeometry x="70" y="865" width="120" height="60" as="geometry" />
        </mxCell>
        <mxCell id="f_LNBWvZgOzlbnHwpdef-45" value="1 红" style="rounded=1;whiteSpace=wrap;html=1;" vertex="1" parent="1">
          <mxGeometry x="-20" y="970" width="120" height="60" as="geometry" />
        </mxCell>
        <mxCell id="f_LNBWvZgOzlbnHwpdef-46" value="10 黑" style="rounded=1;whiteSpace=wrap;html=1;" vertex="1" parent="1">
          <mxGeometry x="270" y="865" width="120" height="60" as="geometry" />
        </mxCell>
        <mxCell id="f_LNBWvZgOzlbnHwpdef-48" value="5 红" style="rounded=1;whiteSpace=wrap;html=1;" vertex="1" parent="1">
          <mxGeometry x="160" y="970" width="120" height="60" as="geometry" />
        </mxCell>
        <mxCell id="f_LNBWvZgOzlbnHwpdef-50" style="edgeStyle=orthogonalEdgeStyle;rounded=0;orthogonalLoop=1;jettySize=auto;html=1;exitX=0.5;exitY=1;exitDx=0;exitDy=0;entryX=0.5;entryY=0;entryDx=0;entryDy=0;" edge="1" parent="1" source="f_LNBWvZgOzlbnHwpdef-52" target="f_LNBWvZgOzlbnHwpdef-55">
          <mxGeometry relative="1" as="geometry" />
        </mxCell>
        <mxCell id="f_LNBWvZgOzlbnHwpdef-51" style="edgeStyle=orthogonalEdgeStyle;rounded=0;orthogonalLoop=1;jettySize=auto;html=1;exitX=0.5;exitY=1;exitDx=0;exitDy=0;" edge="1" parent="1" source="f_LNBWvZgOzlbnHwpdef-52" target="f_LNBWvZgOzlbnHwpdef-57">
          <mxGeometry relative="1" as="geometry" />
        </mxCell>
        <mxCell id="f_LNBWvZgOzlbnHwpdef-52" value="6 黑" style="rounded=1;whiteSpace=wrap;html=1;" vertex="1" parent="1">
          <mxGeometry x="-271" y="1070" width="120" height="60" as="geometry" />
        </mxCell>
        <mxCell id="f_LNBWvZgOzlbnHwpdef-53" style="edgeStyle=orthogonalEdgeStyle;rounded=0;orthogonalLoop=1;jettySize=auto;html=1;exitX=0.5;exitY=1;exitDx=0;exitDy=0;" edge="1" parent="1" source="f_LNBWvZgOzlbnHwpdef-55" target="f_LNBWvZgOzlbnHwpdef-56">
          <mxGeometry relative="1" as="geometry" />
        </mxCell>
        <mxCell id="f_LNBWvZgOzlbnHwpdef-54" style="edgeStyle=orthogonalEdgeStyle;rounded=0;orthogonalLoop=1;jettySize=auto;html=1;exitX=0.5;exitY=1;exitDx=0;exitDy=0;entryX=0.5;entryY=0;entryDx=0;entryDy=0;" edge="1" parent="1" source="f_LNBWvZgOzlbnHwpdef-55" target="f_LNBWvZgOzlbnHwpdef-58">
          <mxGeometry relative="1" as="geometry" />
        </mxCell>
        <mxCell id="f_LNBWvZgOzlbnHwpdef-55" value="3 黑" style="rounded=1;whiteSpace=wrap;html=1;" vertex="1" parent="1">
          <mxGeometry x="-370" y="1175" width="120" height="60" as="geometry" />
        </mxCell>
        <mxCell id="f_LNBWvZgOzlbnHwpdef-56" value="1 红" style="rounded=1;whiteSpace=wrap;html=1;" vertex="1" parent="1">
          <mxGeometry x="-460" y="1280" width="120" height="60" as="geometry" />
        </mxCell>
        <mxCell id="f_LNBWvZgOzlbnHwpdef-57" value="10 黑" style="rounded=1;whiteSpace=wrap;html=1;" vertex="1" parent="1">
          <mxGeometry x="-170" y="1175" width="120" height="60" as="geometry" />
        </mxCell>
        <mxCell id="f_LNBWvZgOzlbnHwpdef-58" value="5 红" style="rounded=1;whiteSpace=wrap;html=1;" vertex="1" parent="1">
          <mxGeometry x="-280" y="1280" width="120" height="60" as="geometry" />
        </mxCell>
        <mxCell id="f_LNBWvZgOzlbnHwpdef-59" style="edgeStyle=orthogonalEdgeStyle;rounded=0;orthogonalLoop=1;jettySize=auto;html=1;exitX=0.5;exitY=1;exitDx=0;exitDy=0;entryX=0.5;entryY=0;entryDx=0;entryDy=0;" edge="1" parent="1" source="f_LNBWvZgOzlbnHwpdef-61" target="f_LNBWvZgOzlbnHwpdef-64">
          <mxGeometry relative="1" as="geometry" />
        </mxCell>
        <mxCell id="f_LNBWvZgOzlbnHwpdef-60" style="edgeStyle=orthogonalEdgeStyle;rounded=0;orthogonalLoop=1;jettySize=auto;html=1;exitX=0.5;exitY=1;exitDx=0;exitDy=0;" edge="1" parent="1" source="f_LNBWvZgOzlbnHwpdef-61" target="f_LNBWvZgOzlbnHwpdef-66">
          <mxGeometry relative="1" as="geometry" />
        </mxCell>
        <mxCell id="f_LNBWvZgOzlbnHwpdef-61" value="6 黑" style="rounded=1;whiteSpace=wrap;html=1;" vertex="1" parent="1">
          <mxGeometry x="170" y="1080" width="120" height="60" as="geometry" />
        </mxCell>
        <mxCell id="f_LNBWvZgOzlbnHwpdef-62" style="edgeStyle=orthogonalEdgeStyle;rounded=0;orthogonalLoop=1;jettySize=auto;html=1;exitX=0.5;exitY=1;exitDx=0;exitDy=0;" edge="1" parent="1" source="f_LNBWvZgOzlbnHwpdef-64" target="f_LNBWvZgOzlbnHwpdef-65">
          <mxGeometry relative="1" as="geometry" />
        </mxCell>
        <mxCell id="f_LNBWvZgOzlbnHwpdef-63" style="edgeStyle=orthogonalEdgeStyle;rounded=0;orthogonalLoop=1;jettySize=auto;html=1;exitX=0.5;exitY=1;exitDx=0;exitDy=0;entryX=0.5;entryY=0;entryDx=0;entryDy=0;" edge="1" parent="1" source="f_LNBWvZgOzlbnHwpdef-64" target="f_LNBWvZgOzlbnHwpdef-67">
          <mxGeometry relative="1" as="geometry" />
        </mxCell>
        <mxCell id="f_LNBWvZgOzlbnHwpdef-64" value="3 红" style="rounded=1;whiteSpace=wrap;html=1;" vertex="1" parent="1">
          <mxGeometry x="70" y="1185" width="120" height="60" as="geometry" />
        </mxCell>
        <mxCell id="f_LNBWvZgOzlbnHwpdef-65" value="1 黑" style="rounded=1;whiteSpace=wrap;html=1;" vertex="1" parent="1">
          <mxGeometry x="-20" y="1290" width="120" height="60" as="geometry" />
        </mxCell>
        <mxCell id="f_LNBWvZgOzlbnHwpdef-66" value="10 黑" style="rounded=1;whiteSpace=wrap;html=1;" vertex="1" parent="1">
          <mxGeometry x="270" y="1185" width="120" height="60" as="geometry" />
        </mxCell>
        <mxCell id="f_LNBWvZgOzlbnHwpdef-71" style="edgeStyle=orthogonalEdgeStyle;rounded=0;orthogonalLoop=1;jettySize=auto;html=1;exitX=0.5;exitY=1;exitDx=0;exitDy=0;" edge="1" parent="1" source="f_LNBWvZgOzlbnHwpdef-67" target="f_LNBWvZgOzlbnHwpdef-69">
          <mxGeometry relative="1" as="geometry" />
        </mxCell>
        <mxCell id="f_LNBWvZgOzlbnHwpdef-67" value="5 黑" style="rounded=1;whiteSpace=wrap;html=1;" vertex="1" parent="1">
          <mxGeometry x="160" y="1290" width="120" height="60" as="geometry" />
        </mxCell>
        <mxCell id="f_LNBWvZgOzlbnHwpdef-69" value="4 红" style="rounded=1;whiteSpace=wrap;html=1;" vertex="1" parent="1">
          <mxGeometry x="100" y="1400" width="120" height="60" as="geometry" />
        </mxCell>
        <mxCell id="f_LNBWvZgOzlbnHwpdef-72" style="edgeStyle=orthogonalEdgeStyle;rounded=0;orthogonalLoop=1;jettySize=auto;html=1;exitX=0.5;exitY=1;exitDx=0;exitDy=0;entryX=0.5;entryY=0;entryDx=0;entryDy=0;" edge="1" parent="1" source="f_LNBWvZgOzlbnHwpdef-74" target="f_LNBWvZgOzlbnHwpdef-77">
          <mxGeometry relative="1" as="geometry" />
        </mxCell>
        <mxCell id="f_LNBWvZgOzlbnHwpdef-73" style="edgeStyle=orthogonalEdgeStyle;rounded=0;orthogonalLoop=1;jettySize=auto;html=1;exitX=0.5;exitY=1;exitDx=0;exitDy=0;" edge="1" parent="1" source="f_LNBWvZgOzlbnHwpdef-74" target="f_LNBWvZgOzlbnHwpdef-79">
          <mxGeometry relative="1" as="geometry" />
        </mxCell>
        <mxCell id="f_LNBWvZgOzlbnHwpdef-74" value="&amp;nbsp;6 黑" style="rounded=1;whiteSpace=wrap;html=1;" vertex="1" parent="1">
          <mxGeometry x="-280" y="1490" width="120" height="60" as="geometry" />
        </mxCell>
        <mxCell id="f_LNBWvZgOzlbnHwpdef-75" style="edgeStyle=orthogonalEdgeStyle;rounded=0;orthogonalLoop=1;jettySize=auto;html=1;exitX=0.5;exitY=1;exitDx=0;exitDy=0;" edge="1" parent="1" source="f_LNBWvZgOzlbnHwpdef-77" target="f_LNBWvZgOzlbnHwpdef-78">
          <mxGeometry relative="1" as="geometry" />
        </mxCell>
        <mxCell id="f_LNBWvZgOzlbnHwpdef-76" style="edgeStyle=orthogonalEdgeStyle;rounded=0;orthogonalLoop=1;jettySize=auto;html=1;exitX=0.5;exitY=1;exitDx=0;exitDy=0;entryX=0.5;entryY=0;entryDx=0;entryDy=0;" edge="1" parent="1" source="f_LNBWvZgOzlbnHwpdef-77" target="f_LNBWvZgOzlbnHwpdef-81">
          <mxGeometry relative="1" as="geometry" />
        </mxCell>
        <mxCell id="f_LNBWvZgOzlbnHwpdef-77" value="3 红" style="rounded=1;whiteSpace=wrap;html=1;" vertex="1" parent="1">
          <mxGeometry x="-380" y="1595" width="120" height="60" as="geometry" />
        </mxCell>
        <mxCell id="f_LNBWvZgOzlbnHwpdef-78" value="1 黑" style="rounded=1;whiteSpace=wrap;html=1;" vertex="1" parent="1">
          <mxGeometry x="-470" y="1700" width="120" height="60" as="geometry" />
        </mxCell>
        <mxCell id="f_LNBWvZgOzlbnHwpdef-79" value="10 黑" style="rounded=1;whiteSpace=wrap;html=1;" vertex="1" parent="1">
          <mxGeometry x="-180" y="1595" width="120" height="60" as="geometry" />
        </mxCell>
        <mxCell id="f_LNBWvZgOzlbnHwpdef-80" style="edgeStyle=orthogonalEdgeStyle;rounded=0;orthogonalLoop=1;jettySize=auto;html=1;exitX=0.5;exitY=1;exitDx=0;exitDy=0;" edge="1" parent="1" source="f_LNBWvZgOzlbnHwpdef-81" target="f_LNBWvZgOzlbnHwpdef-82">
          <mxGeometry relative="1" as="geometry" />
        </mxCell>
        <mxCell id="f_LNBWvZgOzlbnHwpdef-81" value="5 黑" style="rounded=1;whiteSpace=wrap;html=1;" vertex="1" parent="1">
          <mxGeometry x="-290" y="1700" width="120" height="60" as="geometry" />
        </mxCell>
        <mxCell id="f_LNBWvZgOzlbnHwpdef-82" value="4 红" style="rounded=1;whiteSpace=wrap;html=1;" vertex="1" parent="1">
          <mxGeometry x="-350" y="1810" width="120" height="60" as="geometry" />
        </mxCell>
        <mxCell id="f_LNBWvZgOzlbnHwpdef-83" style="edgeStyle=orthogonalEdgeStyle;rounded=0;orthogonalLoop=1;jettySize=auto;html=1;exitX=0.5;exitY=1;exitDx=0;exitDy=0;entryX=0.5;entryY=0;entryDx=0;entryDy=0;" edge="1" parent="1" source="f_LNBWvZgOzlbnHwpdef-85" target="f_LNBWvZgOzlbnHwpdef-88">
          <mxGeometry relative="1" as="geometry" />
        </mxCell>
        <mxCell id="f_LNBWvZgOzlbnHwpdef-84" style="edgeStyle=orthogonalEdgeStyle;rounded=0;orthogonalLoop=1;jettySize=auto;html=1;exitX=0.5;exitY=1;exitDx=0;exitDy=0;" edge="1" parent="1" source="f_LNBWvZgOzlbnHwpdef-85" target="f_LNBWvZgOzlbnHwpdef-90">
          <mxGeometry relative="1" as="geometry" />
        </mxCell>
        <mxCell id="f_LNBWvZgOzlbnHwpdef-85" value="6 黑" style="rounded=1;whiteSpace=wrap;html=1;" vertex="1" parent="1">
          <mxGeometry x="180" y="1480" width="120" height="60" as="geometry" />
        </mxCell>
        <mxCell id="f_LNBWvZgOzlbnHwpdef-86" style="edgeStyle=orthogonalEdgeStyle;rounded=0;orthogonalLoop=1;jettySize=auto;html=1;exitX=0.5;exitY=1;exitDx=0;exitDy=0;" edge="1" parent="1" source="f_LNBWvZgOzlbnHwpdef-88" target="f_LNBWvZgOzlbnHwpdef-89">
          <mxGeometry relative="1" as="geometry" />
        </mxCell>
        <mxCell id="f_LNBWvZgOzlbnHwpdef-87" style="edgeStyle=orthogonalEdgeStyle;rounded=0;orthogonalLoop=1;jettySize=auto;html=1;exitX=0.5;exitY=1;exitDx=0;exitDy=0;entryX=0.5;entryY=0;entryDx=0;entryDy=0;" edge="1" parent="1" source="f_LNBWvZgOzlbnHwpdef-88" target="f_LNBWvZgOzlbnHwpdef-92">
          <mxGeometry relative="1" as="geometry" />
        </mxCell>
        <mxCell id="f_LNBWvZgOzlbnHwpdef-88" value="3 红" style="rounded=1;whiteSpace=wrap;html=1;" vertex="1" parent="1">
          <mxGeometry x="80" y="1585" width="120" height="60" as="geometry" />
        </mxCell>
        <mxCell id="f_LNBWvZgOzlbnHwpdef-89" value="1 黑" style="rounded=1;whiteSpace=wrap;html=1;" vertex="1" parent="1">
          <mxGeometry x="-10" y="1690" width="120" height="60" as="geometry" />
        </mxCell>
        <mxCell id="f_LNBWvZgOzlbnHwpdef-90" value="10 黑" style="rounded=1;whiteSpace=wrap;html=1;" vertex="1" parent="1">
          <mxGeometry x="280" y="1585" width="120" height="60" as="geometry" />
        </mxCell>
        <mxCell id="f_LNBWvZgOzlbnHwpdef-91" style="edgeStyle=orthogonalEdgeStyle;rounded=0;orthogonalLoop=1;jettySize=auto;html=1;exitX=0.5;exitY=1;exitDx=0;exitDy=0;" edge="1" parent="1" source="f_LNBWvZgOzlbnHwpdef-92" target="f_LNBWvZgOzlbnHwpdef-93">
          <mxGeometry relative="1" as="geometry" />
        </mxCell>
        <mxCell id="f_LNBWvZgOzlbnHwpdef-92" value="5 黑" style="rounded=1;whiteSpace=wrap;html=1;" vertex="1" parent="1">
          <mxGeometry x="170" y="1690" width="120" height="60" as="geometry" />
        </mxCell>
        <mxCell id="f_LNBWvZgOzlbnHwpdef-95" style="edgeStyle=orthogonalEdgeStyle;rounded=0;orthogonalLoop=1;jettySize=auto;html=1;exitX=0.5;exitY=1;exitDx=0;exitDy=0;" edge="1" parent="1" source="f_LNBWvZgOzlbnHwpdef-93" target="f_LNBWvZgOzlbnHwpdef-94">
          <mxGeometry relative="1" as="geometry" />
        </mxCell>
        <mxCell id="f_LNBWvZgOzlbnHwpdef-93" value="4 红" style="rounded=1;whiteSpace=wrap;html=1;" vertex="1" parent="1">
          <mxGeometry x="110" y="1800" width="120" height="60" as="geometry" />
        </mxCell>
        <mxCell id="f_LNBWvZgOzlbnHwpdef-94" value="4 红" style="rounded=1;whiteSpace=wrap;html=1;" vertex="1" parent="1">
          <mxGeometry x="180" y="1910" width="120" height="60" as="geometry" />
        </mxCell>
        <mxCell id="f_LNBWvZgOzlbnHwpdef-97" style="edgeStyle=orthogonalEdgeStyle;rounded=0;orthogonalLoop=1;jettySize=auto;html=1;exitX=0.5;exitY=1;exitDx=0;exitDy=0;entryX=0.5;entryY=0;entryDx=0;entryDy=0;" edge="1" parent="1" source="f_LNBWvZgOzlbnHwpdef-99" target="f_LNBWvZgOzlbnHwpdef-102">
          <mxGeometry relative="1" as="geometry" />
        </mxCell>
        <mxCell id="f_LNBWvZgOzlbnHwpdef-98" style="edgeStyle=orthogonalEdgeStyle;rounded=0;orthogonalLoop=1;jettySize=auto;html=1;exitX=0.5;exitY=1;exitDx=0;exitDy=0;" edge="1" parent="1" source="f_LNBWvZgOzlbnHwpdef-99" target="f_LNBWvZgOzlbnHwpdef-104">
          <mxGeometry relative="1" as="geometry" />
        </mxCell>
        <mxCell id="f_LNBWvZgOzlbnHwpdef-99" value="6 黑" style="rounded=1;whiteSpace=wrap;html=1;" vertex="1" parent="1">
          <mxGeometry x="604" y="1480" width="120" height="60" as="geometry" />
        </mxCell>
        <mxCell id="f_LNBWvZgOzlbnHwpdef-100" style="edgeStyle=orthogonalEdgeStyle;rounded=0;orthogonalLoop=1;jettySize=auto;html=1;exitX=0.5;exitY=1;exitDx=0;exitDy=0;" edge="1" parent="1" source="f_LNBWvZgOzlbnHwpdef-102" target="f_LNBWvZgOzlbnHwpdef-103">
          <mxGeometry relative="1" as="geometry" />
        </mxCell>
        <mxCell id="f_LNBWvZgOzlbnHwpdef-101" style="edgeStyle=orthogonalEdgeStyle;rounded=0;orthogonalLoop=1;jettySize=auto;html=1;exitX=0.5;exitY=1;exitDx=0;exitDy=0;entryX=0.5;entryY=0;entryDx=0;entryDy=0;" edge="1" parent="1" source="f_LNBWvZgOzlbnHwpdef-102" target="f_LNBWvZgOzlbnHwpdef-106">
          <mxGeometry relative="1" as="geometry" />
        </mxCell>
        <mxCell id="f_LNBWvZgOzlbnHwpdef-102" value="3 红" style="rounded=1;whiteSpace=wrap;html=1;" vertex="1" parent="1">
          <mxGeometry x="504" y="1585" width="120" height="60" as="geometry" />
        </mxCell>
        <mxCell id="f_LNBWvZgOzlbnHwpdef-103" value="1 黑" style="rounded=1;whiteSpace=wrap;html=1;" vertex="1" parent="1">
          <mxGeometry x="414" y="1690" width="120" height="60" as="geometry" />
        </mxCell>
        <mxCell id="f_LNBWvZgOzlbnHwpdef-104" value="10 黑" style="rounded=1;whiteSpace=wrap;html=1;" vertex="1" parent="1">
          <mxGeometry x="704" y="1585" width="120" height="60" as="geometry" />
        </mxCell>
        <mxCell id="f_LNBWvZgOzlbnHwpdef-105" style="edgeStyle=orthogonalEdgeStyle;rounded=0;orthogonalLoop=1;jettySize=auto;html=1;exitX=0.5;exitY=1;exitDx=0;exitDy=0;" edge="1" parent="1" source="f_LNBWvZgOzlbnHwpdef-106" target="f_LNBWvZgOzlbnHwpdef-108">
          <mxGeometry relative="1" as="geometry" />
        </mxCell>
        <mxCell id="f_LNBWvZgOzlbnHwpdef-106" value="5 黑" style="rounded=1;whiteSpace=wrap;html=1;" vertex="1" parent="1">
          <mxGeometry x="594" y="1690" width="120" height="60" as="geometry" />
        </mxCell>
        <mxCell id="f_LNBWvZgOzlbnHwpdef-107" style="edgeStyle=orthogonalEdgeStyle;rounded=0;orthogonalLoop=1;jettySize=auto;html=1;exitX=0.5;exitY=1;exitDx=0;exitDy=0;" edge="1" parent="1" source="f_LNBWvZgOzlbnHwpdef-108" target="f_LNBWvZgOzlbnHwpdef-109">
          <mxGeometry relative="1" as="geometry" />
        </mxCell>
        <mxCell id="f_LNBWvZgOzlbnHwpdef-108" value="4 红" style="rounded=1;whiteSpace=wrap;html=1;" vertex="1" parent="1">
          <mxGeometry x="534" y="1800" width="120" height="60" as="geometry" />
        </mxCell>
        <mxCell id="f_LNBWvZgOzlbnHwpdef-109" value="4 红" style="rounded=1;whiteSpace=wrap;html=1;" vertex="1" parent="1">
          <mxGeometry x="460" y="1910" width="120" height="60" as="geometry" />
        </mxCell>
        <mxCell id="f_LNBWvZgOzlbnHwpdef-122" style="edgeStyle=orthogonalEdgeStyle;rounded=0;orthogonalLoop=1;jettySize=auto;html=1;exitX=0.5;exitY=1;exitDx=0;exitDy=0;entryX=0.5;entryY=0;entryDx=0;entryDy=0;" edge="1" parent="1" source="f_LNBWvZgOzlbnHwpdef-124" target="f_LNBWvZgOzlbnHwpdef-127">
          <mxGeometry relative="1" as="geometry" />
        </mxCell>
        <mxCell id="f_LNBWvZgOzlbnHwpdef-123" style="edgeStyle=orthogonalEdgeStyle;rounded=0;orthogonalLoop=1;jettySize=auto;html=1;exitX=0.5;exitY=1;exitDx=0;exitDy=0;" edge="1" parent="1" source="f_LNBWvZgOzlbnHwpdef-124" target="f_LNBWvZgOzlbnHwpdef-129">
          <mxGeometry relative="1" as="geometry" />
        </mxCell>
        <mxCell id="f_LNBWvZgOzlbnHwpdef-124" value="6 黑" style="rounded=1;whiteSpace=wrap;html=1;" vertex="1" parent="1">
          <mxGeometry x="1014" y="1475" width="120" height="60" as="geometry" />
        </mxCell>
        <mxCell id="f_LNBWvZgOzlbnHwpdef-125" style="edgeStyle=orthogonalEdgeStyle;rounded=0;orthogonalLoop=1;jettySize=auto;html=1;exitX=0.5;exitY=1;exitDx=0;exitDy=0;" edge="1" parent="1" source="f_LNBWvZgOzlbnHwpdef-127" target="f_LNBWvZgOzlbnHwpdef-128">
          <mxGeometry relative="1" as="geometry" />
        </mxCell>
        <mxCell id="f_LNBWvZgOzlbnHwpdef-126" style="edgeStyle=orthogonalEdgeStyle;rounded=0;orthogonalLoop=1;jettySize=auto;html=1;exitX=0.5;exitY=1;exitDx=0;exitDy=0;entryX=0.5;entryY=0;entryDx=0;entryDy=0;" edge="1" parent="1" source="f_LNBWvZgOzlbnHwpdef-127" target="f_LNBWvZgOzlbnHwpdef-131">
          <mxGeometry relative="1" as="geometry" />
        </mxCell>
        <mxCell id="f_LNBWvZgOzlbnHwpdef-127" value="3 红" style="rounded=1;whiteSpace=wrap;html=1;" vertex="1" parent="1">
          <mxGeometry x="914" y="1580" width="120" height="60" as="geometry" />
        </mxCell>
        <mxCell id="f_LNBWvZgOzlbnHwpdef-128" value="1 黑" style="rounded=1;whiteSpace=wrap;html=1;" vertex="1" parent="1">
          <mxGeometry x="824" y="1685" width="120" height="60" as="geometry" />
        </mxCell>
        <mxCell id="f_LNBWvZgOzlbnHwpdef-129" value="10 黑" style="rounded=1;whiteSpace=wrap;html=1;" vertex="1" parent="1">
          <mxGeometry x="1114" y="1580" width="120" height="60" as="geometry" />
        </mxCell>
        <mxCell id="f_LNBWvZgOzlbnHwpdef-130" style="edgeStyle=orthogonalEdgeStyle;rounded=0;orthogonalLoop=1;jettySize=auto;html=1;exitX=0.5;exitY=1;exitDx=0;exitDy=0;" edge="1" parent="1" source="f_LNBWvZgOzlbnHwpdef-131" target="f_LNBWvZgOzlbnHwpdef-133">
          <mxGeometry relative="1" as="geometry" />
        </mxCell>
        <mxCell id="f_LNBWvZgOzlbnHwpdef-136" style="edgeStyle=orthogonalEdgeStyle;rounded=0;orthogonalLoop=1;jettySize=auto;html=1;exitX=0.5;exitY=1;exitDx=0;exitDy=0;" edge="1" parent="1" source="f_LNBWvZgOzlbnHwpdef-131" target="f_LNBWvZgOzlbnHwpdef-135">
          <mxGeometry relative="1" as="geometry" />
        </mxCell>
        <mxCell id="f_LNBWvZgOzlbnHwpdef-131" value="4 黑" style="rounded=1;whiteSpace=wrap;html=1;" vertex="1" parent="1">
          <mxGeometry x="1004" y="1685" width="120" height="60" as="geometry" />
        </mxCell>
        <mxCell id="f_LNBWvZgOzlbnHwpdef-133" value="4 红" style="rounded=1;whiteSpace=wrap;html=1;" vertex="1" parent="1">
          <mxGeometry x="944" y="1795" width="120" height="60" as="geometry" />
        </mxCell>
        <mxCell id="f_LNBWvZgOzlbnHwpdef-135" value="5 红" style="rounded=1;whiteSpace=wrap;html=1;" vertex="1" parent="1">
          <mxGeometry x="1110" y="1795" width="120" height="60" as="geometry" />
        </mxCell>
        <mxCell id="f_LNBWvZgOzlbnHwpdef-137" style="edgeStyle=orthogonalEdgeStyle;rounded=0;orthogonalLoop=1;jettySize=auto;html=1;exitX=0.5;exitY=1;exitDx=0;exitDy=0;entryX=0.5;entryY=0;entryDx=0;entryDy=0;" edge="1" parent="1" source="f_LNBWvZgOzlbnHwpdef-139" target="f_LNBWvZgOzlbnHwpdef-142">
          <mxGeometry relative="1" as="geometry" />
        </mxCell>
        <mxCell id="f_LNBWvZgOzlbnHwpdef-138" style="edgeStyle=orthogonalEdgeStyle;rounded=0;orthogonalLoop=1;jettySize=auto;html=1;exitX=0.5;exitY=1;exitDx=0;exitDy=0;" edge="1" parent="1" source="f_LNBWvZgOzlbnHwpdef-139" target="f_LNBWvZgOzlbnHwpdef-144">
          <mxGeometry relative="1" as="geometry" />
        </mxCell>
        <mxCell id="f_LNBWvZgOzlbnHwpdef-139" value="6 黑" style="rounded=1;whiteSpace=wrap;html=1;" vertex="1" parent="1">
          <mxGeometry x="-325" y="2010" width="120" height="60" as="geometry" />
        </mxCell>
        <mxCell id="f_LNBWvZgOzlbnHwpdef-140" style="edgeStyle=orthogonalEdgeStyle;rounded=0;orthogonalLoop=1;jettySize=auto;html=1;exitX=0.5;exitY=1;exitDx=0;exitDy=0;" edge="1" parent="1" source="f_LNBWvZgOzlbnHwpdef-142" target="f_LNBWvZgOzlbnHwpdef-143">
          <mxGeometry relative="1" as="geometry" />
        </mxCell>
        <mxCell id="f_LNBWvZgOzlbnHwpdef-141" style="edgeStyle=orthogonalEdgeStyle;rounded=0;orthogonalLoop=1;jettySize=auto;html=1;exitX=0.5;exitY=1;exitDx=0;exitDy=0;entryX=0.5;entryY=0;entryDx=0;entryDy=0;" edge="1" parent="1" source="f_LNBWvZgOzlbnHwpdef-142" target="f_LNBWvZgOzlbnHwpdef-147">
          <mxGeometry relative="1" as="geometry" />
        </mxCell>
        <mxCell id="f_LNBWvZgOzlbnHwpdef-142" value="3 红" style="rounded=1;whiteSpace=wrap;html=1;" vertex="1" parent="1">
          <mxGeometry x="-425" y="2115" width="120" height="60" as="geometry" />
        </mxCell>
        <mxCell id="f_LNBWvZgOzlbnHwpdef-143" value="1 黑" style="rounded=1;whiteSpace=wrap;html=1;" vertex="1" parent="1">
          <mxGeometry x="-515" y="2220" width="120" height="60" as="geometry" />
        </mxCell>
        <mxCell id="f_LNBWvZgOzlbnHwpdef-144" value="10 黑" style="rounded=1;whiteSpace=wrap;html=1;" vertex="1" parent="1">
          <mxGeometry x="-225" y="2115" width="120" height="60" as="geometry" />
        </mxCell>
        <mxCell id="f_LNBWvZgOzlbnHwpdef-145" style="edgeStyle=orthogonalEdgeStyle;rounded=0;orthogonalLoop=1;jettySize=auto;html=1;exitX=0.5;exitY=1;exitDx=0;exitDy=0;" edge="1" parent="1" source="f_LNBWvZgOzlbnHwpdef-147" target="f_LNBWvZgOzlbnHwpdef-148">
          <mxGeometry relative="1" as="geometry" />
        </mxCell>
        <mxCell id="f_LNBWvZgOzlbnHwpdef-146" style="edgeStyle=orthogonalEdgeStyle;rounded=0;orthogonalLoop=1;jettySize=auto;html=1;exitX=0.5;exitY=1;exitDx=0;exitDy=0;" edge="1" parent="1" source="f_LNBWvZgOzlbnHwpdef-147" target="f_LNBWvZgOzlbnHwpdef-149">
          <mxGeometry relative="1" as="geometry" />
        </mxCell>
        <mxCell id="f_LNBWvZgOzlbnHwpdef-147" value="4 黑" style="rounded=1;whiteSpace=wrap;html=1;" vertex="1" parent="1">
          <mxGeometry x="-335" y="2220" width="120" height="60" as="geometry" />
        </mxCell>
        <mxCell id="f_LNBWvZgOzlbnHwpdef-148" value="4 红" style="rounded=1;whiteSpace=wrap;html=1;" vertex="1" parent="1">
          <mxGeometry x="-395" y="2330" width="120" height="60" as="geometry" />
        </mxCell>
        <mxCell id="f_LNBWvZgOzlbnHwpdef-149" value="5 红" style="rounded=1;whiteSpace=wrap;html=1;" vertex="1" parent="1">
          <mxGeometry x="-229" y="2330" width="120" height="60" as="geometry" />
        </mxCell>
        <mxCell id="f_LNBWvZgOzlbnHwpdef-150" style="edgeStyle=orthogonalEdgeStyle;rounded=0;orthogonalLoop=1;jettySize=auto;html=1;exitX=0.5;exitY=1;exitDx=0;exitDy=0;entryX=0.5;entryY=0;entryDx=0;entryDy=0;" edge="1" parent="1" source="f_LNBWvZgOzlbnHwpdef-152" target="f_LNBWvZgOzlbnHwpdef-155">
          <mxGeometry relative="1" as="geometry" />
        </mxCell>
        <mxCell id="f_LNBWvZgOzlbnHwpdef-151" style="edgeStyle=orthogonalEdgeStyle;rounded=0;orthogonalLoop=1;jettySize=auto;html=1;exitX=0.5;exitY=1;exitDx=0;exitDy=0;" edge="1" parent="1" source="f_LNBWvZgOzlbnHwpdef-152" target="f_LNBWvZgOzlbnHwpdef-157">
          <mxGeometry relative="1" as="geometry" />
        </mxCell>
        <mxCell id="f_LNBWvZgOzlbnHwpdef-152" value="6 黑" style="rounded=1;whiteSpace=wrap;html=1;" vertex="1" parent="1">
          <mxGeometry x="190" y="2040" width="120" height="60" as="geometry" />
        </mxCell>
        <mxCell id="f_LNBWvZgOzlbnHwpdef-153" style="edgeStyle=orthogonalEdgeStyle;rounded=0;orthogonalLoop=1;jettySize=auto;html=1;exitX=0.5;exitY=1;exitDx=0;exitDy=0;" edge="1" parent="1" source="f_LNBWvZgOzlbnHwpdef-155" target="f_LNBWvZgOzlbnHwpdef-156">
          <mxGeometry relative="1" as="geometry" />
        </mxCell>
        <mxCell id="f_LNBWvZgOzlbnHwpdef-154" style="edgeStyle=orthogonalEdgeStyle;rounded=0;orthogonalLoop=1;jettySize=auto;html=1;exitX=0.5;exitY=1;exitDx=0;exitDy=0;entryX=0.5;entryY=0;entryDx=0;entryDy=0;" edge="1" parent="1" source="f_LNBWvZgOzlbnHwpdef-155" target="f_LNBWvZgOzlbnHwpdef-160">
          <mxGeometry relative="1" as="geometry" />
        </mxCell>
        <mxCell id="f_LNBWvZgOzlbnHwpdef-155" value="3 红" style="rounded=1;whiteSpace=wrap;html=1;" vertex="1" parent="1">
          <mxGeometry x="90" y="2145" width="120" height="60" as="geometry" />
        </mxCell>
        <mxCell id="f_LNBWvZgOzlbnHwpdef-156" value="1 黑" style="rounded=1;whiteSpace=wrap;html=1;" vertex="1" parent="1">
          <mxGeometry y="2250" width="120" height="60" as="geometry" />
        </mxCell>
        <mxCell id="f_LNBWvZgOzlbnHwpdef-157" value="10 黑" style="rounded=1;whiteSpace=wrap;html=1;" vertex="1" parent="1">
          <mxGeometry x="290" y="2145" width="120" height="60" as="geometry" />
        </mxCell>
        <mxCell id="f_LNBWvZgOzlbnHwpdef-158" style="edgeStyle=orthogonalEdgeStyle;rounded=0;orthogonalLoop=1;jettySize=auto;html=1;exitX=0.5;exitY=1;exitDx=0;exitDy=0;" edge="1" parent="1" source="f_LNBWvZgOzlbnHwpdef-160" target="f_LNBWvZgOzlbnHwpdef-161">
          <mxGeometry relative="1" as="geometry" />
        </mxCell>
        <mxCell id="f_LNBWvZgOzlbnHwpdef-159" style="edgeStyle=orthogonalEdgeStyle;rounded=0;orthogonalLoop=1;jettySize=auto;html=1;exitX=0.5;exitY=1;exitDx=0;exitDy=0;" edge="1" parent="1" source="f_LNBWvZgOzlbnHwpdef-160" target="f_LNBWvZgOzlbnHwpdef-162">
          <mxGeometry relative="1" as="geometry" />
        </mxCell>
        <mxCell id="f_LNBWvZgOzlbnHwpdef-160" value="4 红" style="rounded=1;whiteSpace=wrap;html=1;" vertex="1" parent="1">
          <mxGeometry x="180" y="2250" width="120" height="60" as="geometry" />
        </mxCell>
        <mxCell id="f_LNBWvZgOzlbnHwpdef-161" value="4 黑" style="rounded=1;whiteSpace=wrap;html=1;" vertex="1" parent="1">
          <mxGeometry x="100" y="2360" width="120" height="60" as="geometry" />
        </mxCell>
        <mxCell id="f_LNBWvZgOzlbnHwpdef-164" style="edgeStyle=orthogonalEdgeStyle;rounded=0;orthogonalLoop=1;jettySize=auto;html=1;exitX=0.5;exitY=1;exitDx=0;exitDy=0;" edge="1" parent="1" source="f_LNBWvZgOzlbnHwpdef-162" target="f_LNBWvZgOzlbnHwpdef-163">
          <mxGeometry relative="1" as="geometry" />
        </mxCell>
        <mxCell id="f_LNBWvZgOzlbnHwpdef-162" value="5 黑" style="rounded=1;whiteSpace=wrap;html=1;" vertex="1" parent="1">
          <mxGeometry x="286" y="2360" width="120" height="60" as="geometry" />
        </mxCell>
        <mxCell id="f_LNBWvZgOzlbnHwpdef-163" value="4 红" style="rounded=1;whiteSpace=wrap;html=1;" vertex="1" parent="1">
          <mxGeometry x="221" y="2480" width="120" height="60" as="geometry" />
        </mxCell>
        <mxCell id="f_LNBWvZgOzlbnHwpdef-165" style="edgeStyle=orthogonalEdgeStyle;rounded=0;orthogonalLoop=1;jettySize=auto;html=1;exitX=0.5;exitY=1;exitDx=0;exitDy=0;entryX=0.5;entryY=0;entryDx=0;entryDy=0;" edge="1" parent="1" source="f_LNBWvZgOzlbnHwpdef-167" target="f_LNBWvZgOzlbnHwpdef-170">
          <mxGeometry relative="1" as="geometry" />
        </mxCell>
        <mxCell id="f_LNBWvZgOzlbnHwpdef-166" style="edgeStyle=orthogonalEdgeStyle;rounded=0;orthogonalLoop=1;jettySize=auto;html=1;exitX=0.5;exitY=1;exitDx=0;exitDy=0;" edge="1" parent="1" source="f_LNBWvZgOzlbnHwpdef-167" target="f_LNBWvZgOzlbnHwpdef-172">
          <mxGeometry relative="1" as="geometry" />
        </mxCell>
        <mxCell id="f_LNBWvZgOzlbnHwpdef-167" value="6 红" style="rounded=1;whiteSpace=wrap;html=1;" vertex="1" parent="1">
          <mxGeometry x="750" y="2040" width="120" height="60" as="geometry" />
        </mxCell>
        <mxCell id="f_LNBWvZgOzlbnHwpdef-168" style="edgeStyle=orthogonalEdgeStyle;rounded=0;orthogonalLoop=1;jettySize=auto;html=1;exitX=0.5;exitY=1;exitDx=0;exitDy=0;" edge="1" parent="1" source="f_LNBWvZgOzlbnHwpdef-170" target="f_LNBWvZgOzlbnHwpdef-171">
          <mxGeometry relative="1" as="geometry" />
        </mxCell>
        <mxCell id="f_LNBWvZgOzlbnHwpdef-184" style="edgeStyle=orthogonalEdgeStyle;rounded=0;orthogonalLoop=1;jettySize=auto;html=1;exitX=0.5;exitY=1;exitDx=0;exitDy=0;" edge="1" parent="1" source="f_LNBWvZgOzlbnHwpdef-170" target="f_LNBWvZgOzlbnHwpdef-178">
          <mxGeometry relative="1" as="geometry" />
        </mxCell>
        <mxCell id="f_LNBWvZgOzlbnHwpdef-170" value="4 黑" style="rounded=1;whiteSpace=wrap;html=1;" vertex="1" parent="1">
          <mxGeometry x="650" y="2145" width="120" height="60" as="geometry" />
        </mxCell>
        <mxCell id="f_LNBWvZgOzlbnHwpdef-182" style="edgeStyle=orthogonalEdgeStyle;rounded=0;orthogonalLoop=1;jettySize=auto;html=1;exitX=0.5;exitY=1;exitDx=0;exitDy=0;entryX=0.5;entryY=0;entryDx=0;entryDy=0;" edge="1" parent="1" source="f_LNBWvZgOzlbnHwpdef-171" target="f_LNBWvZgOzlbnHwpdef-181">
          <mxGeometry relative="1" as="geometry" />
        </mxCell>
        <mxCell id="f_LNBWvZgOzlbnHwpdef-183" style="edgeStyle=orthogonalEdgeStyle;rounded=0;orthogonalLoop=1;jettySize=auto;html=1;exitX=0.5;exitY=1;exitDx=0;exitDy=0;" edge="1" parent="1" source="f_LNBWvZgOzlbnHwpdef-171" target="f_LNBWvZgOzlbnHwpdef-176">
          <mxGeometry relative="1" as="geometry" />
        </mxCell>
        <mxCell id="f_LNBWvZgOzlbnHwpdef-171" value="3 红" style="rounded=1;whiteSpace=wrap;html=1;" vertex="1" parent="1">
          <mxGeometry x="560" y="2250" width="120" height="60" as="geometry" />
        </mxCell>
        <mxCell id="f_LNBWvZgOzlbnHwpdef-172" value="10 黑" style="rounded=1;whiteSpace=wrap;html=1;" vertex="1" parent="1">
          <mxGeometry x="850" y="2145" width="120" height="60" as="geometry" />
        </mxCell>
        <mxCell id="f_LNBWvZgOzlbnHwpdef-176" value="4 黑" style="rounded=1;whiteSpace=wrap;html=1;" vertex="1" parent="1">
          <mxGeometry x="660" y="2360" width="120" height="60" as="geometry" />
        </mxCell>
        <mxCell id="f_LNBWvZgOzlbnHwpdef-177" style="edgeStyle=orthogonalEdgeStyle;rounded=0;orthogonalLoop=1;jettySize=auto;html=1;exitX=0.5;exitY=1;exitDx=0;exitDy=0;" edge="1" parent="1" source="f_LNBWvZgOzlbnHwpdef-178" target="f_LNBWvZgOzlbnHwpdef-179">
          <mxGeometry relative="1" as="geometry" />
        </mxCell>
        <mxCell id="f_LNBWvZgOzlbnHwpdef-178" value="5 黑" style="rounded=1;whiteSpace=wrap;html=1;" vertex="1" parent="1">
          <mxGeometry x="860" y="2250" width="120" height="60" as="geometry" />
        </mxCell>
        <mxCell id="f_LNBWvZgOzlbnHwpdef-179" value="4 红" style="rounded=1;whiteSpace=wrap;html=1;" vertex="1" parent="1">
          <mxGeometry x="794" y="2360" width="120" height="60" as="geometry" />
        </mxCell>
        <mxCell id="f_LNBWvZgOzlbnHwpdef-181" value="1 黑" style="rounded=1;whiteSpace=wrap;html=1;" vertex="1" parent="1">
          <mxGeometry x="470" y="2360" width="120" height="60" as="geometry" />
        </mxCell>
        <mxCell id="f_LNBWvZgOzlbnHwpdef-186" style="edgeStyle=orthogonalEdgeStyle;rounded=0;orthogonalLoop=1;jettySize=auto;html=1;exitX=0.5;exitY=1;exitDx=0;exitDy=0;" edge="1" parent="1" source="f_LNBWvZgOzlbnHwpdef-187" target="f_LNBWvZgOzlbnHwpdef-194">
          <mxGeometry relative="1" as="geometry" />
        </mxCell>
        <mxCell id="f_LNBWvZgOzlbnHwpdef-200" style="edgeStyle=orthogonalEdgeStyle;rounded=0;orthogonalLoop=1;jettySize=auto;html=1;exitX=0.5;exitY=1;exitDx=0;exitDy=0;" edge="1" parent="1" source="f_LNBWvZgOzlbnHwpdef-187" target="f_LNBWvZgOzlbnHwpdef-197">
          <mxGeometry relative="1" as="geometry" />
        </mxCell>
        <mxCell id="f_LNBWvZgOzlbnHwpdef-187" value="6 红" style="rounded=1;whiteSpace=wrap;html=1;" vertex="1" parent="1">
          <mxGeometry x="1490" y="2150" width="120" height="60" as="geometry" />
        </mxCell>
        <mxCell id="f_LNBWvZgOzlbnHwpdef-188" style="edgeStyle=orthogonalEdgeStyle;rounded=0;orthogonalLoop=1;jettySize=auto;html=1;exitX=0.5;exitY=1;exitDx=0;exitDy=0;" edge="1" parent="1" source="f_LNBWvZgOzlbnHwpdef-190" target="f_LNBWvZgOzlbnHwpdef-193">
          <mxGeometry relative="1" as="geometry" />
        </mxCell>
        <mxCell id="f_LNBWvZgOzlbnHwpdef-201" style="edgeStyle=orthogonalEdgeStyle;rounded=0;orthogonalLoop=1;jettySize=auto;html=1;exitX=0.5;exitY=1;exitDx=0;exitDy=0;" edge="1" parent="1" source="f_LNBWvZgOzlbnHwpdef-190" target="f_LNBWvZgOzlbnHwpdef-187">
          <mxGeometry relative="1" as="geometry">
            <Array as="points">
              <mxPoint x="1350" y="2130" />
              <mxPoint x="1550" y="2130" />
            </Array>
          </mxGeometry>
        </mxCell>
        <mxCell id="f_LNBWvZgOzlbnHwpdef-190" value="4 黑" style="rounded=1;whiteSpace=wrap;html=1;" vertex="1" parent="1">
          <mxGeometry x="1290" y="2040" width="120" height="60" as="geometry" />
        </mxCell>
        <mxCell id="f_LNBWvZgOzlbnHwpdef-191" style="edgeStyle=orthogonalEdgeStyle;rounded=0;orthogonalLoop=1;jettySize=auto;html=1;exitX=0.5;exitY=1;exitDx=0;exitDy=0;entryX=0.5;entryY=0;entryDx=0;entryDy=0;" edge="1" parent="1" source="f_LNBWvZgOzlbnHwpdef-193" target="f_LNBWvZgOzlbnHwpdef-199">
          <mxGeometry relative="1" as="geometry" />
        </mxCell>
        <mxCell id="f_LNBWvZgOzlbnHwpdef-192" style="edgeStyle=orthogonalEdgeStyle;rounded=0;orthogonalLoop=1;jettySize=auto;html=1;exitX=0.5;exitY=1;exitDx=0;exitDy=0;" edge="1" parent="1" source="f_LNBWvZgOzlbnHwpdef-193" target="f_LNBWvZgOzlbnHwpdef-195">
          <mxGeometry relative="1" as="geometry" />
        </mxCell>
        <mxCell id="f_LNBWvZgOzlbnHwpdef-193" value="3 红" style="rounded=1;whiteSpace=wrap;html=1;" vertex="1" parent="1">
          <mxGeometry x="1110" y="2160" width="120" height="60" as="geometry" />
        </mxCell>
        <mxCell id="f_LNBWvZgOzlbnHwpdef-194" value="10 黑" style="rounded=1;whiteSpace=wrap;html=1;" vertex="1" parent="1">
          <mxGeometry x="1590" y="2255" width="120" height="60" as="geometry" />
        </mxCell>
        <mxCell id="f_LNBWvZgOzlbnHwpdef-195" value="4 黑" style="rounded=1;whiteSpace=wrap;html=1;" vertex="1" parent="1">
          <mxGeometry x="1210" y="2270" width="120" height="60" as="geometry" />
        </mxCell>
        <mxCell id="f_LNBWvZgOzlbnHwpdef-196" style="edgeStyle=orthogonalEdgeStyle;rounded=0;orthogonalLoop=1;jettySize=auto;html=1;exitX=0.5;exitY=1;exitDx=0;exitDy=0;" edge="1" parent="1" source="f_LNBWvZgOzlbnHwpdef-197" target="f_LNBWvZgOzlbnHwpdef-198">
          <mxGeometry relative="1" as="geometry" />
        </mxCell>
        <mxCell id="f_LNBWvZgOzlbnHwpdef-197" value="5 黑" style="rounded=1;whiteSpace=wrap;html=1;" vertex="1" parent="1">
          <mxGeometry x="1396" y="2255" width="120" height="60" as="geometry" />
        </mxCell>
        <mxCell id="f_LNBWvZgOzlbnHwpdef-198" value="4 红" style="rounded=1;whiteSpace=wrap;html=1;" vertex="1" parent="1">
          <mxGeometry x="1330" y="2370" width="120" height="60" as="geometry" />
        </mxCell>
        <mxCell id="f_LNBWvZgOzlbnHwpdef-199" value="1 黑" style="rounded=1;whiteSpace=wrap;html=1;" vertex="1" parent="1">
          <mxGeometry x="1020" y="2270" width="120" height="60" as="geometry" />
        </mxCell>
        <mxCell id="f_LNBWvZgOzlbnHwpdef-202" style="edgeStyle=orthogonalEdgeStyle;rounded=0;orthogonalLoop=1;jettySize=auto;html=1;exitX=0.5;exitY=1;exitDx=0;exitDy=0;" edge="1" parent="1" source="f_LNBWvZgOzlbnHwpdef-204" target="f_LNBWvZgOzlbnHwpdef-211">
          <mxGeometry relative="1" as="geometry" />
        </mxCell>
        <mxCell id="f_LNBWvZgOzlbnHwpdef-203" style="edgeStyle=orthogonalEdgeStyle;rounded=0;orthogonalLoop=1;jettySize=auto;html=1;exitX=0.5;exitY=1;exitDx=0;exitDy=0;" edge="1" parent="1" source="f_LNBWvZgOzlbnHwpdef-204" target="f_LNBWvZgOzlbnHwpdef-214">
          <mxGeometry relative="1" as="geometry" />
        </mxCell>
        <mxCell id="f_LNBWvZgOzlbnHwpdef-204" value="6 红" style="rounded=1;whiteSpace=wrap;html=1;" vertex="1" parent="1">
          <mxGeometry x="-380" y="2720" width="120" height="60" as="geometry" />
        </mxCell>
        <mxCell id="f_LNBWvZgOzlbnHwpdef-205" style="edgeStyle=orthogonalEdgeStyle;rounded=0;orthogonalLoop=1;jettySize=auto;html=1;exitX=0.5;exitY=1;exitDx=0;exitDy=0;" edge="1" parent="1" source="f_LNBWvZgOzlbnHwpdef-207" target="f_LNBWvZgOzlbnHwpdef-210">
          <mxGeometry relative="1" as="geometry" />
        </mxCell>
        <mxCell id="f_LNBWvZgOzlbnHwpdef-206" style="edgeStyle=orthogonalEdgeStyle;rounded=0;orthogonalLoop=1;jettySize=auto;html=1;exitX=0.5;exitY=1;exitDx=0;exitDy=0;" edge="1" parent="1" source="f_LNBWvZgOzlbnHwpdef-207" target="f_LNBWvZgOzlbnHwpdef-204">
          <mxGeometry relative="1" as="geometry">
            <Array as="points">
              <mxPoint x="-520" y="2700" />
              <mxPoint x="-320" y="2700" />
            </Array>
          </mxGeometry>
        </mxCell>
        <mxCell id="f_LNBWvZgOzlbnHwpdef-207" value="4 黑" style="rounded=1;whiteSpace=wrap;html=1;" vertex="1" parent="1">
          <mxGeometry x="-580" y="2610" width="120" height="60" as="geometry" />
        </mxCell>
        <mxCell id="f_LNBWvZgOzlbnHwpdef-208" style="edgeStyle=orthogonalEdgeStyle;rounded=0;orthogonalLoop=1;jettySize=auto;html=1;exitX=0.5;exitY=1;exitDx=0;exitDy=0;entryX=0.5;entryY=0;entryDx=0;entryDy=0;" edge="1" parent="1" source="f_LNBWvZgOzlbnHwpdef-210" target="f_LNBWvZgOzlbnHwpdef-216">
          <mxGeometry relative="1" as="geometry" />
        </mxCell>
        <mxCell id="f_LNBWvZgOzlbnHwpdef-209" style="edgeStyle=orthogonalEdgeStyle;rounded=0;orthogonalLoop=1;jettySize=auto;html=1;exitX=0.5;exitY=1;exitDx=0;exitDy=0;" edge="1" parent="1" source="f_LNBWvZgOzlbnHwpdef-210" target="f_LNBWvZgOzlbnHwpdef-212">
          <mxGeometry relative="1" as="geometry" />
        </mxCell>
        <mxCell id="f_LNBWvZgOzlbnHwpdef-210" value="3 红" style="rounded=1;whiteSpace=wrap;html=1;" vertex="1" parent="1">
          <mxGeometry x="-760" y="2730" width="120" height="60" as="geometry" />
        </mxCell>
        <mxCell id="f_LNBWvZgOzlbnHwpdef-211" value="10 黑" style="rounded=1;whiteSpace=wrap;html=1;" vertex="1" parent="1">
          <mxGeometry x="-280" y="2825" width="120" height="60" as="geometry" />
        </mxCell>
        <mxCell id="f_LNBWvZgOzlbnHwpdef-212" value="4 黑" style="rounded=1;whiteSpace=wrap;html=1;" vertex="1" parent="1">
          <mxGeometry x="-660" y="2840" width="120" height="60" as="geometry" />
        </mxCell>
        <mxCell id="f_LNBWvZgOzlbnHwpdef-213" style="edgeStyle=orthogonalEdgeStyle;rounded=0;orthogonalLoop=1;jettySize=auto;html=1;exitX=0.5;exitY=1;exitDx=0;exitDy=0;" edge="1" parent="1" source="f_LNBWvZgOzlbnHwpdef-214" target="f_LNBWvZgOzlbnHwpdef-215">
          <mxGeometry relative="1" as="geometry" />
        </mxCell>
        <mxCell id="f_LNBWvZgOzlbnHwpdef-214" value="5 黑" style="rounded=1;whiteSpace=wrap;html=1;" vertex="1" parent="1">
          <mxGeometry x="-474" y="2825" width="120" height="60" as="geometry" />
        </mxCell>
        <mxCell id="f_LNBWvZgOzlbnHwpdef-215" value="4 红" style="rounded=1;whiteSpace=wrap;html=1;" vertex="1" parent="1">
          <mxGeometry x="-540" y="2940" width="120" height="60" as="geometry" />
        </mxCell>
        <mxCell id="f_LNBWvZgOzlbnHwpdef-216" value="1 黑" style="rounded=1;whiteSpace=wrap;html=1;" vertex="1" parent="1">
          <mxGeometry x="-850" y="2840" width="120" height="60" as="geometry" />
        </mxCell>
        <mxCell id="f_LNBWvZgOzlbnHwpdef-217" style="edgeStyle=orthogonalEdgeStyle;rounded=0;orthogonalLoop=1;jettySize=auto;html=1;exitX=0.5;exitY=1;exitDx=0;exitDy=0;" edge="1" parent="1" source="f_LNBWvZgOzlbnHwpdef-219" target="f_LNBWvZgOzlbnHwpdef-226">
          <mxGeometry relative="1" as="geometry" />
        </mxCell>
        <mxCell id="f_LNBWvZgOzlbnHwpdef-218" style="edgeStyle=orthogonalEdgeStyle;rounded=0;orthogonalLoop=1;jettySize=auto;html=1;exitX=0.5;exitY=1;exitDx=0;exitDy=0;" edge="1" parent="1" source="f_LNBWvZgOzlbnHwpdef-219" target="f_LNBWvZgOzlbnHwpdef-229">
          <mxGeometry relative="1" as="geometry" />
        </mxCell>
        <mxCell id="f_LNBWvZgOzlbnHwpdef-219" value="6 红" style="rounded=1;whiteSpace=wrap;html=1;" vertex="1" parent="1">
          <mxGeometry x="404" y="2710" width="120" height="60" as="geometry" />
        </mxCell>
        <mxCell id="f_LNBWvZgOzlbnHwpdef-220" style="edgeStyle=orthogonalEdgeStyle;rounded=0;orthogonalLoop=1;jettySize=auto;html=1;exitX=0.5;exitY=1;exitDx=0;exitDy=0;" edge="1" parent="1" source="f_LNBWvZgOzlbnHwpdef-222" target="f_LNBWvZgOzlbnHwpdef-225">
          <mxGeometry relative="1" as="geometry" />
        </mxCell>
        <mxCell id="f_LNBWvZgOzlbnHwpdef-221" style="edgeStyle=orthogonalEdgeStyle;rounded=0;orthogonalLoop=1;jettySize=auto;html=1;exitX=0.5;exitY=1;exitDx=0;exitDy=0;" edge="1" parent="1" source="f_LNBWvZgOzlbnHwpdef-222" target="f_LNBWvZgOzlbnHwpdef-219">
          <mxGeometry relative="1" as="geometry">
            <Array as="points">
              <mxPoint x="264" y="2690" />
              <mxPoint x="464" y="2690" />
            </Array>
          </mxGeometry>
        </mxCell>
        <mxCell id="f_LNBWvZgOzlbnHwpdef-222" value="4 黑" style="rounded=1;whiteSpace=wrap;html=1;" vertex="1" parent="1">
          <mxGeometry x="204" y="2600" width="120" height="60" as="geometry" />
        </mxCell>
        <mxCell id="f_LNBWvZgOzlbnHwpdef-223" style="edgeStyle=orthogonalEdgeStyle;rounded=0;orthogonalLoop=1;jettySize=auto;html=1;exitX=0.5;exitY=1;exitDx=0;exitDy=0;entryX=0.5;entryY=0;entryDx=0;entryDy=0;" edge="1" parent="1" source="f_LNBWvZgOzlbnHwpdef-225" target="f_LNBWvZgOzlbnHwpdef-231">
          <mxGeometry relative="1" as="geometry" />
        </mxCell>
        <mxCell id="f_LNBWvZgOzlbnHwpdef-224" style="edgeStyle=orthogonalEdgeStyle;rounded=0;orthogonalLoop=1;jettySize=auto;html=1;exitX=0.5;exitY=1;exitDx=0;exitDy=0;" edge="1" parent="1" source="f_LNBWvZgOzlbnHwpdef-225" target="f_LNBWvZgOzlbnHwpdef-227">
          <mxGeometry relative="1" as="geometry" />
        </mxCell>
        <mxCell id="f_LNBWvZgOzlbnHwpdef-225" value="3 红" style="rounded=1;whiteSpace=wrap;html=1;" vertex="1" parent="1">
          <mxGeometry x="24" y="2720" width="120" height="60" as="geometry" />
        </mxCell>
        <mxCell id="f_LNBWvZgOzlbnHwpdef-233" style="edgeStyle=orthogonalEdgeStyle;rounded=0;orthogonalLoop=1;jettySize=auto;html=1;exitX=0.5;exitY=1;exitDx=0;exitDy=0;" edge="1" parent="1" source="f_LNBWvZgOzlbnHwpdef-226" target="f_LNBWvZgOzlbnHwpdef-232">
          <mxGeometry relative="1" as="geometry" />
        </mxCell>
        <mxCell id="f_LNBWvZgOzlbnHwpdef-226" value="10 黑" style="rounded=1;whiteSpace=wrap;html=1;" vertex="1" parent="1">
          <mxGeometry x="504" y="2815" width="120" height="60" as="geometry" />
        </mxCell>
        <mxCell id="f_LNBWvZgOzlbnHwpdef-227" value="4 黑" style="rounded=1;whiteSpace=wrap;html=1;" vertex="1" parent="1">
          <mxGeometry x="124" y="2830" width="120" height="60" as="geometry" />
        </mxCell>
        <mxCell id="f_LNBWvZgOzlbnHwpdef-228" style="edgeStyle=orthogonalEdgeStyle;rounded=0;orthogonalLoop=1;jettySize=auto;html=1;exitX=0.5;exitY=1;exitDx=0;exitDy=0;" edge="1" parent="1" source="f_LNBWvZgOzlbnHwpdef-229" target="f_LNBWvZgOzlbnHwpdef-230">
          <mxGeometry relative="1" as="geometry" />
        </mxCell>
        <mxCell id="f_LNBWvZgOzlbnHwpdef-229" value="5 黑" style="rounded=1;whiteSpace=wrap;html=1;" vertex="1" parent="1">
          <mxGeometry x="310" y="2815" width="120" height="60" as="geometry" />
        </mxCell>
        <mxCell id="f_LNBWvZgOzlbnHwpdef-230" value="4 红" style="rounded=1;whiteSpace=wrap;html=1;" vertex="1" parent="1">
          <mxGeometry x="244" y="2930" width="120" height="60" as="geometry" />
        </mxCell>
        <mxCell id="f_LNBWvZgOzlbnHwpdef-231" value="1 黑" style="rounded=1;whiteSpace=wrap;html=1;" vertex="1" parent="1">
          <mxGeometry x="-66" y="2830" width="120" height="60" as="geometry" />
        </mxCell>
        <mxCell id="f_LNBWvZgOzlbnHwpdef-232" value="12红" style="rounded=1;whiteSpace=wrap;html=1;" vertex="1" parent="1">
          <mxGeometry x="624" y="2930" width="120" height="60" as="geometry" />
        </mxCell>
        <mxCell id="f_LNBWvZgOzlbnHwpdef-234" style="edgeStyle=orthogonalEdgeStyle;rounded=0;orthogonalLoop=1;jettySize=auto;html=1;exitX=0.5;exitY=1;exitDx=0;exitDy=0;" edge="1" parent="1" source="f_LNBWvZgOzlbnHwpdef-236" target="f_LNBWvZgOzlbnHwpdef-244">
          <mxGeometry relative="1" as="geometry" />
        </mxCell>
        <mxCell id="f_LNBWvZgOzlbnHwpdef-235" style="edgeStyle=orthogonalEdgeStyle;rounded=0;orthogonalLoop=1;jettySize=auto;html=1;exitX=0.5;exitY=1;exitDx=0;exitDy=0;" edge="1" parent="1" source="f_LNBWvZgOzlbnHwpdef-236" target="f_LNBWvZgOzlbnHwpdef-247">
          <mxGeometry relative="1" as="geometry" />
        </mxCell>
        <mxCell id="f_LNBWvZgOzlbnHwpdef-236" value="6 红" style="rounded=1;whiteSpace=wrap;html=1;" vertex="1" parent="1">
          <mxGeometry x="-590" y="3160" width="120" height="60" as="geometry" />
        </mxCell>
        <mxCell id="f_LNBWvZgOzlbnHwpdef-237" style="edgeStyle=orthogonalEdgeStyle;rounded=0;orthogonalLoop=1;jettySize=auto;html=1;exitX=0.5;exitY=1;exitDx=0;exitDy=0;" edge="1" parent="1" source="f_LNBWvZgOzlbnHwpdef-239" target="f_LNBWvZgOzlbnHwpdef-242">
          <mxGeometry relative="1" as="geometry" />
        </mxCell>
        <mxCell id="f_LNBWvZgOzlbnHwpdef-238" style="edgeStyle=orthogonalEdgeStyle;rounded=0;orthogonalLoop=1;jettySize=auto;html=1;exitX=0.5;exitY=1;exitDx=0;exitDy=0;" edge="1" parent="1" source="f_LNBWvZgOzlbnHwpdef-239" target="f_LNBWvZgOzlbnHwpdef-236">
          <mxGeometry relative="1" as="geometry">
            <Array as="points">
              <mxPoint x="-730" y="3140" />
              <mxPoint x="-530" y="3140" />
            </Array>
          </mxGeometry>
        </mxCell>
        <mxCell id="f_LNBWvZgOzlbnHwpdef-239" value="4 黑" style="rounded=1;whiteSpace=wrap;html=1;" vertex="1" parent="1">
          <mxGeometry x="-790" y="3050" width="120" height="60" as="geometry" />
        </mxCell>
        <mxCell id="f_LNBWvZgOzlbnHwpdef-240" style="edgeStyle=orthogonalEdgeStyle;rounded=0;orthogonalLoop=1;jettySize=auto;html=1;exitX=0.5;exitY=1;exitDx=0;exitDy=0;entryX=0.5;entryY=0;entryDx=0;entryDy=0;" edge="1" parent="1" source="f_LNBWvZgOzlbnHwpdef-242" target="f_LNBWvZgOzlbnHwpdef-249">
          <mxGeometry relative="1" as="geometry" />
        </mxCell>
        <mxCell id="f_LNBWvZgOzlbnHwpdef-241" style="edgeStyle=orthogonalEdgeStyle;rounded=0;orthogonalLoop=1;jettySize=auto;html=1;exitX=0.5;exitY=1;exitDx=0;exitDy=0;" edge="1" parent="1" source="f_LNBWvZgOzlbnHwpdef-242" target="f_LNBWvZgOzlbnHwpdef-245">
          <mxGeometry relative="1" as="geometry" />
        </mxCell>
        <mxCell id="f_LNBWvZgOzlbnHwpdef-242" value="3 红" style="rounded=1;whiteSpace=wrap;html=1;" vertex="1" parent="1">
          <mxGeometry x="-970" y="3170" width="120" height="60" as="geometry" />
        </mxCell>
        <mxCell id="f_LNBWvZgOzlbnHwpdef-243" style="edgeStyle=orthogonalEdgeStyle;rounded=0;orthogonalLoop=1;jettySize=auto;html=1;exitX=0.5;exitY=1;exitDx=0;exitDy=0;" edge="1" parent="1" source="f_LNBWvZgOzlbnHwpdef-244" target="f_LNBWvZgOzlbnHwpdef-250">
          <mxGeometry relative="1" as="geometry" />
        </mxCell>
        <mxCell id="f_LNBWvZgOzlbnHwpdef-244" value="10 黑" style="rounded=1;whiteSpace=wrap;html=1;" vertex="1" parent="1">
          <mxGeometry x="-490" y="3265" width="120" height="60" as="geometry" />
        </mxCell>
        <mxCell id="f_LNBWvZgOzlbnHwpdef-245" value="4 黑" style="rounded=1;whiteSpace=wrap;html=1;" vertex="1" parent="1">
          <mxGeometry x="-870" y="3280" width="120" height="60" as="geometry" />
        </mxCell>
        <mxCell id="f_LNBWvZgOzlbnHwpdef-246" style="edgeStyle=orthogonalEdgeStyle;rounded=0;orthogonalLoop=1;jettySize=auto;html=1;exitX=0.5;exitY=1;exitDx=0;exitDy=0;" edge="1" parent="1" source="f_LNBWvZgOzlbnHwpdef-247" target="f_LNBWvZgOzlbnHwpdef-248">
          <mxGeometry relative="1" as="geometry" />
        </mxCell>
        <mxCell id="f_LNBWvZgOzlbnHwpdef-247" value="5 黑" style="rounded=1;whiteSpace=wrap;html=1;" vertex="1" parent="1">
          <mxGeometry x="-684" y="3265" width="120" height="60" as="geometry" />
        </mxCell>
        <mxCell id="f_LNBWvZgOzlbnHwpdef-248" value="4 红" style="rounded=1;whiteSpace=wrap;html=1;" vertex="1" parent="1">
          <mxGeometry x="-750" y="3380" width="120" height="60" as="geometry" />
        </mxCell>
        <mxCell id="f_LNBWvZgOzlbnHwpdef-249" value="1 黑" style="rounded=1;whiteSpace=wrap;html=1;" vertex="1" parent="1">
          <mxGeometry x="-1060" y="3280" width="120" height="60" as="geometry" />
        </mxCell>
        <mxCell id="f_LNBWvZgOzlbnHwpdef-250" value="12红" style="rounded=1;whiteSpace=wrap;html=1;" vertex="1" parent="1">
          <mxGeometry x="-370" y="3380" width="120" height="60" as="geometry" />
        </mxCell>
        <mxCell id="f_LNBWvZgOzlbnHwpdef-251" style="edgeStyle=orthogonalEdgeStyle;rounded=0;orthogonalLoop=1;jettySize=auto;html=1;exitX=0.5;exitY=1;exitDx=0;exitDy=0;" edge="1" parent="1" source="f_LNBWvZgOzlbnHwpdef-253" target="f_LNBWvZgOzlbnHwpdef-261">
          <mxGeometry relative="1" as="geometry" />
        </mxCell>
        <mxCell id="f_LNBWvZgOzlbnHwpdef-252" style="edgeStyle=orthogonalEdgeStyle;rounded=0;orthogonalLoop=1;jettySize=auto;html=1;exitX=0.5;exitY=1;exitDx=0;exitDy=0;" edge="1" parent="1" source="f_LNBWvZgOzlbnHwpdef-253" target="f_LNBWvZgOzlbnHwpdef-264">
          <mxGeometry relative="1" as="geometry" />
        </mxCell>
        <mxCell id="f_LNBWvZgOzlbnHwpdef-253" value="6 红" style="rounded=1;whiteSpace=wrap;html=1;" vertex="1" parent="1">
          <mxGeometry x="320" y="3210" width="120" height="60" as="geometry" />
        </mxCell>
        <mxCell id="f_LNBWvZgOzlbnHwpdef-254" style="edgeStyle=orthogonalEdgeStyle;rounded=0;orthogonalLoop=1;jettySize=auto;html=1;exitX=0.5;exitY=1;exitDx=0;exitDy=0;" edge="1" parent="1" source="f_LNBWvZgOzlbnHwpdef-256" target="f_LNBWvZgOzlbnHwpdef-259">
          <mxGeometry relative="1" as="geometry" />
        </mxCell>
        <mxCell id="f_LNBWvZgOzlbnHwpdef-255" style="edgeStyle=orthogonalEdgeStyle;rounded=0;orthogonalLoop=1;jettySize=auto;html=1;exitX=0.5;exitY=1;exitDx=0;exitDy=0;" edge="1" parent="1" source="f_LNBWvZgOzlbnHwpdef-256" target="f_LNBWvZgOzlbnHwpdef-253">
          <mxGeometry relative="1" as="geometry">
            <Array as="points">
              <mxPoint x="180" y="3190" />
              <mxPoint x="380" y="3190" />
            </Array>
          </mxGeometry>
        </mxCell>
        <mxCell id="f_LNBWvZgOzlbnHwpdef-256" value="4 黑" style="rounded=1;whiteSpace=wrap;html=1;" vertex="1" parent="1">
          <mxGeometry x="120" y="3100" width="120" height="60" as="geometry" />
        </mxCell>
        <mxCell id="f_LNBWvZgOzlbnHwpdef-257" style="edgeStyle=orthogonalEdgeStyle;rounded=0;orthogonalLoop=1;jettySize=auto;html=1;exitX=0.5;exitY=1;exitDx=0;exitDy=0;entryX=0.5;entryY=0;entryDx=0;entryDy=0;" edge="1" parent="1" source="f_LNBWvZgOzlbnHwpdef-259" target="f_LNBWvZgOzlbnHwpdef-266">
          <mxGeometry relative="1" as="geometry" />
        </mxCell>
        <mxCell id="f_LNBWvZgOzlbnHwpdef-258" style="edgeStyle=orthogonalEdgeStyle;rounded=0;orthogonalLoop=1;jettySize=auto;html=1;exitX=0.5;exitY=1;exitDx=0;exitDy=0;" edge="1" parent="1" source="f_LNBWvZgOzlbnHwpdef-259" target="f_LNBWvZgOzlbnHwpdef-262">
          <mxGeometry relative="1" as="geometry" />
        </mxCell>
        <mxCell id="f_LNBWvZgOzlbnHwpdef-259" value="3 红" style="rounded=1;whiteSpace=wrap;html=1;" vertex="1" parent="1">
          <mxGeometry x="-60" y="3220" width="120" height="60" as="geometry" />
        </mxCell>
        <mxCell id="f_LNBWvZgOzlbnHwpdef-260" style="edgeStyle=orthogonalEdgeStyle;rounded=0;orthogonalLoop=1;jettySize=auto;html=1;exitX=0.5;exitY=1;exitDx=0;exitDy=0;" edge="1" parent="1" source="f_LNBWvZgOzlbnHwpdef-261" target="f_LNBWvZgOzlbnHwpdef-267">
          <mxGeometry relative="1" as="geometry" />
        </mxCell>
        <mxCell id="f_LNBWvZgOzlbnHwpdef-261" value="10 黑" style="rounded=1;whiteSpace=wrap;html=1;" vertex="1" parent="1">
          <mxGeometry x="420" y="3315" width="120" height="60" as="geometry" />
        </mxCell>
        <mxCell id="f_LNBWvZgOzlbnHwpdef-262" value="4 黑" style="rounded=1;whiteSpace=wrap;html=1;" vertex="1" parent="1">
          <mxGeometry x="40" y="3330" width="120" height="60" as="geometry" />
        </mxCell>
        <mxCell id="f_LNBWvZgOzlbnHwpdef-263" style="edgeStyle=orthogonalEdgeStyle;rounded=0;orthogonalLoop=1;jettySize=auto;html=1;exitX=0.5;exitY=1;exitDx=0;exitDy=0;" edge="1" parent="1" source="f_LNBWvZgOzlbnHwpdef-264" target="f_LNBWvZgOzlbnHwpdef-265">
          <mxGeometry relative="1" as="geometry" />
        </mxCell>
        <mxCell id="f_LNBWvZgOzlbnHwpdef-264" value="5 黑" style="rounded=1;whiteSpace=wrap;html=1;" vertex="1" parent="1">
          <mxGeometry x="226" y="3315" width="120" height="60" as="geometry" />
        </mxCell>
        <mxCell id="f_LNBWvZgOzlbnHwpdef-265" value="4 红" style="rounded=1;whiteSpace=wrap;html=1;" vertex="1" parent="1">
          <mxGeometry x="160" y="3430" width="120" height="60" as="geometry" />
        </mxCell>
        <mxCell id="f_LNBWvZgOzlbnHwpdef-266" value="1 黑" style="rounded=1;whiteSpace=wrap;html=1;" vertex="1" parent="1">
          <mxGeometry x="-150" y="3330" width="120" height="60" as="geometry" />
        </mxCell>
        <mxCell id="f_LNBWvZgOzlbnHwpdef-269" style="edgeStyle=orthogonalEdgeStyle;rounded=0;orthogonalLoop=1;jettySize=auto;html=1;exitX=0.5;exitY=1;exitDx=0;exitDy=0;entryX=0.5;entryY=0;entryDx=0;entryDy=0;" edge="1" parent="1" source="f_LNBWvZgOzlbnHwpdef-267" target="f_LNBWvZgOzlbnHwpdef-268">
          <mxGeometry relative="1" as="geometry" />
        </mxCell>
        <mxCell id="f_LNBWvZgOzlbnHwpdef-267" value="12红" style="rounded=1;whiteSpace=wrap;html=1;" vertex="1" parent="1">
          <mxGeometry x="540" y="3430" width="120" height="60" as="geometry" />
        </mxCell>
        <mxCell id="f_LNBWvZgOzlbnHwpdef-268" value="15红" style="rounded=1;whiteSpace=wrap;html=1;" vertex="1" parent="1">
          <mxGeometry x="624" y="3550" width="120" height="60" as="geometry" />
        </mxCell>
        <mxCell id="f_LNBWvZgOzlbnHwpdef-271" style="edgeStyle=orthogonalEdgeStyle;rounded=0;orthogonalLoop=1;jettySize=auto;html=1;exitX=0.5;exitY=1;exitDx=0;exitDy=0;" edge="1" parent="1" source="f_LNBWvZgOzlbnHwpdef-272" target="f_LNBWvZgOzlbnHwpdef-283">
          <mxGeometry relative="1" as="geometry" />
        </mxCell>
        <mxCell id="f_LNBWvZgOzlbnHwpdef-289" style="edgeStyle=orthogonalEdgeStyle;rounded=0;orthogonalLoop=1;jettySize=auto;html=1;exitX=0.5;exitY=1;exitDx=0;exitDy=0;" edge="1" parent="1" source="f_LNBWvZgOzlbnHwpdef-272" target="f_LNBWvZgOzlbnHwpdef-287">
          <mxGeometry relative="1" as="geometry" />
        </mxCell>
        <mxCell id="f_LNBWvZgOzlbnHwpdef-272" value="6 红" style="rounded=1;whiteSpace=wrap;html=1;" vertex="1" parent="1">
          <mxGeometry x="1250" y="3190" width="120" height="60" as="geometry" />
        </mxCell>
        <mxCell id="f_LNBWvZgOzlbnHwpdef-273" style="edgeStyle=orthogonalEdgeStyle;rounded=0;orthogonalLoop=1;jettySize=auto;html=1;exitX=0.5;exitY=1;exitDx=0;exitDy=0;" edge="1" parent="1" source="f_LNBWvZgOzlbnHwpdef-275" target="f_LNBWvZgOzlbnHwpdef-278">
          <mxGeometry relative="1" as="geometry" />
        </mxCell>
        <mxCell id="f_LNBWvZgOzlbnHwpdef-274" style="edgeStyle=orthogonalEdgeStyle;rounded=0;orthogonalLoop=1;jettySize=auto;html=1;exitX=0.5;exitY=1;exitDx=0;exitDy=0;" edge="1" parent="1" source="f_LNBWvZgOzlbnHwpdef-275" target="f_LNBWvZgOzlbnHwpdef-272">
          <mxGeometry relative="1" as="geometry">
            <Array as="points">
              <mxPoint x="1110" y="3170" />
              <mxPoint x="1310" y="3170" />
            </Array>
          </mxGeometry>
        </mxCell>
        <mxCell id="f_LNBWvZgOzlbnHwpdef-275" value="4 黑" style="rounded=1;whiteSpace=wrap;html=1;" vertex="1" parent="1">
          <mxGeometry x="1050" y="3080" width="120" height="60" as="geometry" />
        </mxCell>
        <mxCell id="f_LNBWvZgOzlbnHwpdef-276" style="edgeStyle=orthogonalEdgeStyle;rounded=0;orthogonalLoop=1;jettySize=auto;html=1;exitX=0.5;exitY=1;exitDx=0;exitDy=0;entryX=0.5;entryY=0;entryDx=0;entryDy=0;" edge="1" parent="1" source="f_LNBWvZgOzlbnHwpdef-278" target="f_LNBWvZgOzlbnHwpdef-285">
          <mxGeometry relative="1" as="geometry" />
        </mxCell>
        <mxCell id="f_LNBWvZgOzlbnHwpdef-277" style="edgeStyle=orthogonalEdgeStyle;rounded=0;orthogonalLoop=1;jettySize=auto;html=1;exitX=0.5;exitY=1;exitDx=0;exitDy=0;" edge="1" parent="1" source="f_LNBWvZgOzlbnHwpdef-278" target="f_LNBWvZgOzlbnHwpdef-281">
          <mxGeometry relative="1" as="geometry" />
        </mxCell>
        <mxCell id="f_LNBWvZgOzlbnHwpdef-278" value="3 红" style="rounded=1;whiteSpace=wrap;html=1;" vertex="1" parent="1">
          <mxGeometry x="870" y="3200" width="120" height="60" as="geometry" />
        </mxCell>
        <mxCell id="f_LNBWvZgOzlbnHwpdef-280" value="10 红" style="rounded=1;whiteSpace=wrap;html=1;" vertex="1" parent="1">
          <mxGeometry x="1290" y="3410" width="120" height="60" as="geometry" />
        </mxCell>
        <mxCell id="f_LNBWvZgOzlbnHwpdef-281" value="4 黑" style="rounded=1;whiteSpace=wrap;html=1;" vertex="1" parent="1">
          <mxGeometry x="970" y="3310" width="120" height="60" as="geometry" />
        </mxCell>
        <mxCell id="f_LNBWvZgOzlbnHwpdef-282" style="edgeStyle=orthogonalEdgeStyle;rounded=0;orthogonalLoop=1;jettySize=auto;html=1;exitX=0.5;exitY=1;exitDx=0;exitDy=0;" edge="1" parent="1" source="f_LNBWvZgOzlbnHwpdef-283" target="f_LNBWvZgOzlbnHwpdef-284">
          <mxGeometry relative="1" as="geometry" />
        </mxCell>
        <mxCell id="f_LNBWvZgOzlbnHwpdef-283" value="5 黑" style="rounded=1;whiteSpace=wrap;html=1;" vertex="1" parent="1">
          <mxGeometry x="1156" y="3295" width="120" height="60" as="geometry" />
        </mxCell>
        <mxCell id="f_LNBWvZgOzlbnHwpdef-284" value="4 红" style="rounded=1;whiteSpace=wrap;html=1;" vertex="1" parent="1">
          <mxGeometry x="1090" y="3410" width="120" height="60" as="geometry" />
        </mxCell>
        <mxCell id="f_LNBWvZgOzlbnHwpdef-285" value="1 黑" style="rounded=1;whiteSpace=wrap;html=1;" vertex="1" parent="1">
          <mxGeometry x="780" y="3310" width="120" height="60" as="geometry" />
        </mxCell>
        <mxCell id="f_LNBWvZgOzlbnHwpdef-286" style="edgeStyle=orthogonalEdgeStyle;rounded=0;orthogonalLoop=1;jettySize=auto;html=1;exitX=0.5;exitY=1;exitDx=0;exitDy=0;entryX=0.5;entryY=0;entryDx=0;entryDy=0;" edge="1" parent="1" source="f_LNBWvZgOzlbnHwpdef-287" target="f_LNBWvZgOzlbnHwpdef-288">
          <mxGeometry relative="1" as="geometry">
            <Array as="points">
              <mxPoint x="1456" y="3380" />
              <mxPoint x="1540" y="3380" />
            </Array>
          </mxGeometry>
        </mxCell>
        <mxCell id="f_LNBWvZgOzlbnHwpdef-290" style="edgeStyle=orthogonalEdgeStyle;rounded=0;orthogonalLoop=1;jettySize=auto;html=1;exitX=0.5;exitY=1;exitDx=0;exitDy=0;" edge="1" parent="1" source="f_LNBWvZgOzlbnHwpdef-287" target="f_LNBWvZgOzlbnHwpdef-280">
          <mxGeometry relative="1" as="geometry" />
        </mxCell>
        <mxCell id="f_LNBWvZgOzlbnHwpdef-287" value="12黑" style="rounded=1;whiteSpace=wrap;html=1;" vertex="1" parent="1">
          <mxGeometry x="1396" y="3295" width="120" height="60" as="geometry" />
        </mxCell>
        <mxCell id="f_LNBWvZgOzlbnHwpdef-288" value="15红" style="rounded=1;whiteSpace=wrap;html=1;" vertex="1" parent="1">
          <mxGeometry x="1500" y="3410" width="120" height="60" as="geometry" />
        </mxCell>
      </root>
    </mxGraphModel>
  </diagram>
</mxfile>
